<svg width="12" height="11" viewBox="0 0 12 11" fill="none" xmlns="http://www.w3.org/2000/svg">
<path d="M6.47334 5.52821C6.58616 5.52821 6.69898 5.4718 6.8118 5.41539L10.8169 1.41026V3.49744C10.8169 3.72308 10.9862 3.94872 11.2682 3.94872C11.4939 3.94872 11.7195 3.77949 11.7195 3.49744V0.451282C11.7195 0.225641 11.5503 0 11.2682 0H8.16565C7.94001 0 7.71437 0.169231 7.71437 0.451282C7.71437 0.676923 7.8836 0.902564 8.16565 0.902564H10.1964L6.19129 4.85128C6.02206 5.02051 6.02206 5.30256 6.19129 5.4718C6.2477 5.52821 6.36052 5.52821 6.47334 5.52821ZM11.2682 5.97949C11.0426 5.97949 10.8169 6.14872 10.8169 6.43077V9.92821C10.8169 10.0974 10.7041 10.2103 10.5349 10.2103H1.79129C1.62206 10.2103 1.50924 10.0974 1.50924 9.92821V1.12821C1.50924 0.958974 1.62206 0.846154 1.79129 0.846154H5.1195C5.34514 0.846154 5.57078 0.676923 5.57078 0.394872C5.51437 0.169231 5.34514 0 5.1195 0H1.79129C1.17078 0 0.663086 0.507692 0.663086 1.12821V9.8718C0.663086 10.4923 1.17078 11 1.79129 11H10.5349C11.1554 11 11.6631 10.4923 11.6631 9.8718V6.37436C11.6631 6.14872 11.4939 5.97949 11.2682 5.97949Z" fill="currentColor"/>
</svg>
