<svg width="1182" height="307" viewBox="0 0 1182 307" fill="none" xmlns="http://www.w3.org/2000/svg">
<path d="M553.054 158.974L435.819 0H430.1V4.04574V81.1527V301.883H477.875V146.003L595.11 304.977H600.829V247.742V223.824V4.04574H553.054V158.974ZM331.689 231.083C331.689 245.838 319.656 257.856 304.882 257.856H294.636C279.863 257.856 267.829 245.838 267.829 231.083V4.04574H220.054V231.083C220.054 272.135 253.533 305.453 294.636 305.453H304.882C345.986 305.453 379.465 272.135 379.465 231.083V4.04574H331.689V231.083ZM122.954 128.631H47.8948V4.04574H0V301.883H47.7756V176.346H122.835V301.883H170.61V4.04574H122.835V128.631H122.954ZM724.974 50.0957H735.22C742.607 50.0957 749.279 53.0705 754.164 57.9492C759.049 62.8279 762.027 69.4915 762.027 76.869H809.803C809.803 56.4023 801.463 37.7205 788 24.2744C774.537 10.7093 755.832 2.37984 735.34 2.37984H725.093C704.482 2.37984 685.896 10.7093 672.433 24.1554C658.97 37.6015 650.511 56.1643 650.511 76.75V232.63C650.511 273.682 683.99 307 725.093 307H735.34C756.07 307 774.775 298.552 788.238 284.986C788.238 284.986 788.834 284.272 789.43 283.559L804.084 303.549H809.803V232.987V229.655V219.779V130.178H729.74V177.893H762.027V232.63C762.027 247.385 749.994 259.403 735.22 259.403H724.974C710.201 259.403 698.168 247.385 698.168 232.63V76.75C698.168 69.3725 701.146 62.7089 706.031 57.8302C710.916 53.0705 717.588 50.0957 724.974 50.0957ZM1138.16 162.781C1156.15 149.216 1167.82 127.679 1167.82 103.523V79.9628C1167.82 38.9105 1134.34 5.59264 1093.24 5.59264H1077.99H1049.52H1030.33H1030.21V303.43H1077.99V177.893H1092.41L1131.6 303.43H1182L1138.16 162.781ZM1120.05 103.404C1120.05 118.159 1108.01 130.178 1093.24 130.178H1077.99V53.1895H1093.24C1108.01 53.1895 1120.05 65.2077 1120.05 79.9628V103.404ZM860.557 301.883H985.774V254.167H908.333V176.346H962.304V128.631H908.333V51.7616H985.774V4.04574H860.557V301.883Z" fill="currentColor"/>
</svg>
