<svg width="20" height="20" viewBox="0 0 20 20" fill="none" xmlns="http://www.w3.org/2000/svg">
<path d="M20 10.2077C19.96 11.6495 19.9503 13.0928 19.8712 14.5327C19.787 16.0607 19.2815 17.4242 18.1185 18.4879C17.2229 19.3069 16.1506 19.7334 14.967 19.8523C14.0308 19.9463 13.0864 19.9804 12.1448 19.9891C10.3898 20.0052 8.63392 20.0075 6.87896 19.9675C6.02471 19.9481 5.15298 19.9094 4.32357 19.7256C1.93655 19.1968 0.427696 17.4855 0.151226 15.0358C0.0412823 14.0624 0.0178214 13.0762 0.00816111 12.0955C-0.00885948 10.3533 0.00264092 8.61065 0.0251817 6.86848C0.0376021 5.90251 0.0601429 4.93238 0.340753 3.99497C0.986155 1.8396 2.44763 0.568209 4.63776 0.212129C5.69764 0.0398465 6.78926 0.0292517 7.86754 0.013129C9.60732 -0.0131279 11.348 0.00437671 13.0878 0.0274091C14.0906 0.0407679 15.0976 0.0638002 16.0687 0.370131C18.177 1.03577 19.4126 2.49372 19.758 4.64678C19.9319 5.73068 19.9186 6.84683 19.9604 7.95008C19.989 8.7014 19.966 9.45456 19.966 10.2068C19.977 10.2068 19.9885 10.2073 20 10.2077ZM1.77922 9.99904C1.79072 9.99904 1.80268 9.9995 1.81418 9.9995C1.81418 10.8056 1.79808 11.6118 1.81878 12.417C1.83948 13.2217 1.86249 14.0292 1.94483 14.8289C2.12147 16.5462 3.23379 17.7485 4.92941 18.0028C5.78918 18.1318 6.66873 18.1585 7.54 18.1719C9.16478 18.1972 10.79 18.1921 12.4148 18.1737C13.2106 18.1645 14.0101 18.1355 14.8004 18.0489C16.5471 17.8572 17.7114 16.7738 17.9773 15.0418C18.1093 14.1817 18.1346 13.3 18.1443 12.4276C18.165 10.632 18.1567 8.83591 18.1314 7.04031C18.1213 6.32861 18.0905 5.60907 17.9727 4.90935C17.7335 3.48733 16.9289 2.50569 15.5162 2.10493C15.0778 1.98055 14.6141 1.89672 14.1601 1.88842C11.923 1.84789 9.68506 1.82716 7.44754 1.82532C6.69035 1.82486 5.92949 1.86493 5.17736 1.94923C3.99742 2.0819 3.02679 2.60012 2.41865 3.66652C2.04603 4.32064 1.90343 5.04478 1.87951 5.78781C1.83488 7.19094 1.81142 8.59499 1.77922 9.99904Z" fill="currentColor"/>
<path d="M9.98499 15.1356C7.19085 15.1489 4.87467 12.8591 4.85397 10.0625C4.83281 7.19034 7.12093 4.86499 9.97211 4.86038C12.8003 4.85577 15.1041 7.14427 15.1146 9.96942C15.1261 12.8259 12.8458 15.1218 9.98499 15.1356ZM9.96843 13.3202C11.7924 13.3225 13.2976 11.8507 13.3013 10.0606C13.3054 8.18349 11.8476 6.67856 10.0236 6.67672C8.16931 6.67487 6.66782 8.14342 6.6669 9.95929C6.66644 11.8291 8.12883 13.3179 9.96843 13.3202Z" fill="currentColor"/>
<path d="M15.3055 5.86597C14.638 5.86597 14.1127 5.33761 14.1113 4.66553C14.1104 3.99713 14.6394 3.4637 15.3051 3.46186C15.9804 3.46001 16.5181 4.00081 16.5131 4.67612C16.508 5.34268 15.9767 5.86597 15.3055 5.86597Z" fill="currentColor"/>
</svg>
