<svg width="16" height="20" viewBox="0 0 16 20" fill="none" xmlns="http://www.w3.org/2000/svg">
<path d="M15.1612 6.44824C15.1612 10.8665 12.6906 14.1647 9.08765 14.1647C7.87294 14.1647 6.72824 13.51 6.33706 12.7606C6.33706 12.7606 5.68235 15.3547 5.54647 15.8571C5.06059 17.6235 3.62353 19.3941 3.51647 19.5424C3.46294 19.6041 3.36412 19.6124 3.30235 19.5588C3.27765 19.5382 3.26118 19.5094 3.25294 19.4765C3.22412 19.25 2.84118 17.0059 3.29 15.1982C3.50412 14.2841 4.73529 9.06295 4.73529 9.06295C4.49235 8.49883 4.36882 7.89353 4.37706 7.28C4.37706 5.63295 5.34471 4.36882 6.54706 4.36882C7.57235 4.36882 8.06647 5.13471 8.06647 6.05706C8.06647 7.08647 7.41176 8.62647 7.07412 10.0512C6.83529 10.9818 7.39941 11.9329 8.33 12.1677C8.49883 12.2088 8.67177 12.2294 8.84882 12.2212C10.9818 12.2212 12.4188 9.48294 12.4188 6.23412C12.4188 3.76353 10.7718 1.92294 7.73706 1.92294C4.31941 1.92294 2.19059 4.46765 2.19059 7.31295C2.15765 8.11589 2.42118 8.90236 2.93588 9.52001C3.12118 9.67236 3.18706 9.92765 3.09647 10.15C3.04294 10.3559 2.91941 10.8541 2.86588 11.0518C2.81235 11.2741 2.59412 11.41 2.37176 11.3606C2.34706 11.3565 2.32647 11.3482 2.30176 11.3359C0.732941 10.6894 0 8.96824 0 7.03294C0 3.83353 2.69706 0 8.04588 0C12.3365 0 15.1612 3.10883 15.1612 6.44824Z" fill="currentColor"/>
</svg>
