<svg width="18" height="18" viewBox="0 0 18 18" fill="none" xmlns="http://www.w3.org/2000/svg">
<path d="M17.775 16.725L12.675 11.5875C13.65 10.3875 14.25 8.8125 14.25 7.125C14.25 3.1875 11.0625 0 7.125 0C3.1875 0 0 3.1875 0 7.125C0 11.0625 3.1875 14.25 7.125 14.25C8.8125 14.25 10.3875 13.65 11.5875 12.675L16.6875 17.775C17.025 18.1125 17.5125 18 17.7375 17.775C18.075 17.475 18.075 17.025 17.775 16.725ZM1.5 7.125C1.5 4.0125 4.0125 1.5 7.125 1.5C10.2375 1.5 12.75 4.0125 12.75 7.125C12.75 10.2375 10.2375 12.75 7.125 12.75C4.0125 12.75 1.5 10.2375 1.5 7.125Z" fill="currentColor"/>
</svg>
