<svg width="21" height="17" viewBox="0 0 21 17" fill="none" xmlns="http://www.w3.org/2000/svg">
<path d="M20.935 2.01184C20.1526 2.35908 19.3219 2.58763 18.4692 2.68872C19.3658 2.15249 20.0383 1.30859 20.3592 0.310847C19.5153 0.811915 18.5923 1.16355 17.6297 1.35255C16.0078 -0.374819 13.2871 -0.458334 11.5597 1.16354C10.6982 1.97228 10.206 3.10628 10.206 4.28862C10.206 4.61827 10.2455 4.94792 10.3158 5.26878C6.86551 5.10176 3.65252 3.47988 1.46365 0.807522C0.32965 2.76344 0.909834 5.25999 2.78225 6.52145C2.10097 6.49947 1.43288 6.31487 0.835113 5.98522V6.04236C0.835113 8.08619 2.27678 9.84433 4.28105 10.2487C3.64813 10.4201 2.98443 10.4421 2.34271 10.3234C2.90532 12.0727 4.51401 13.2727 6.35126 13.3034C4.83047 14.4946 2.95366 15.1363 1.02411 15.1319C0.681277 15.1319 0.338441 15.1099 0 15.0704C1.96471 16.3362 4.25468 17.0087 6.593 16.9999C14.5046 16.9999 18.8076 10.4597 18.8076 4.78969C18.8076 4.60069 18.8076 4.41608 18.8076 4.23148C19.6427 3.62493 20.3636 2.87333 20.935 2.01184Z" fill="currentColor"/>
</svg>
